<svg width="32" height="32" viewBox="0 0 32 32" fill="none" xmlns="http://www.w3.org/2000/svg">
<rect width="32" height="32" rx="16" fill="url(#paint0_radial_435_359)" fill-opacity="0.8"/>
<path d="M14.6472 17.2674C15.027 17.2892 15.3142 17.6063 15.3416 18.0657C15.3389 18.2688 15.3104 18.4887 15.2434 18.6767C14.7638 20.0358 14.2832 21.3955 13.7606 22.7445C13.5544 23.3299 13.2889 23.8786 13.0499 24.4109C12.7599 24.297 12.7459 24.0673 12.7486 23.8641C12.7793 23.3504 12.7889 22.8312 12.9055 22.3378C13.0918 21.4531 13.3262 20.5568 13.5391 19.6558C13.6708 19.098 13.8082 18.519 13.9185 17.9562C14.03 17.4842 14.2672 17.2456 14.6472 17.2674ZM17.8842 16.6053C19.9373 17.0223 21.9804 17.4821 23.9779 18.1352C24.0208 18.1453 24.0592 18.1769 24.097 18.2085L24.0667 18.3368C23.6603 18.3314 23.2217 18.3643 22.8304 18.2945C21.186 18.0646 19.5631 17.8399 17.9289 17.5671C17.6665 17.5277 17.3814 17.3924 17.1708 17.2294C16.8794 17.0247 16.982 16.6862 17.3178 16.6069C17.5096 16.5617 17.7126 16.5647 17.8842 16.6053ZM9.653 12.8033C11.1357 13.3348 12.5973 13.8615 14.0799 14.393C14.2464 14.455 14.3865 14.5331 14.553 14.5951C14.5164 14.6543 14.5067 14.6974 14.4966 14.7403C13.7356 14.6058 12.9585 14.5361 12.2127 14.3372C11.1617 14.0889 10.1045 13.7711 9.06369 13.4799C8.89206 13.4394 8.72995 13.3551 8.58991 13.2767C8.39096 13.1616 8.30257 12.9599 8.40095 12.7343C8.49454 12.5299 8.68694 12.4848 8.90148 12.5355C9.15365 12.6177 9.40083 12.7211 9.653 12.8033ZM19.4061 7.76724C19.4917 7.78817 19.5696 8.03237 19.5608 8.16602C19.5428 8.43362 19.4771 8.71314 19.4276 9.01859C19.2884 9.41604 19.149 9.81387 19.0312 10.2164C18.7806 11.0858 18.5562 11.939 18.3055 12.8084C18.208 13.1251 18.0887 13.4366 17.9105 13.7115C17.7272 14.008 17.4517 14.2152 17.0655 14.124C16.6796 14.0327 16.5471 13.7291 16.4944 13.377C16.4168 12.7471 16.5809 12.1512 16.8515 11.5809C17.3092 10.6019 17.7831 9.64937 18.3001 8.70706C18.4619 8.4055 18.7101 8.12409 18.9477 7.88571C19.0374 7.79364 19.2774 7.73683 19.4061 7.76724Z" fill="white"/>
<defs>
<radialGradient id="paint0_radial_435_359" cx="0" cy="0" r="1" gradientUnits="userSpaceOnUse" gradientTransform="translate(21.8834 2.36932) rotate(115.727) scale(28.6848)">
<stop stop-color="white"/>
<stop offset="1" stop-color="#8A38F5"/>
</radialGradient>
</defs>
</svg>
