<svg width="30" height="30" viewBox="0 0 30 30" fill="none" xmlns="http://www.w3.org/2000/svg">
<rect width="29.5472" height="29.5472" rx="14.7736" fill="url(#paint0_linear_254_1881)"/>
<path d="M13.5244 15.9436C13.8752 15.9637 14.1407 16.2568 14.166 16.6811C14.1635 16.8686 14.1368 17.0712 14.075 17.2446C13.6321 18.4996 13.1896 19.7549 12.7071 21.0005C12.5166 21.541 12.2712 22.0476 12.0506 22.5392C11.7828 22.4341 11.7698 22.2225 11.7723 22.035C11.8007 21.5606 11.8091 21.0808 11.9167 20.6251C12.0888 19.8084 12.3051 18.9812 12.5016 18.1493C12.6233 17.6342 12.7496 17.099 12.8514 16.5793C12.9544 16.1437 13.1739 15.9236 13.5244 15.9436ZM16.5136 15.3322C18.4096 15.7174 20.2968 16.1419 22.1413 16.745C22.1808 16.7544 22.2159 16.7839 22.2507 16.813L22.2226 16.9318C21.8473 16.9268 21.4424 16.9563 21.0811 16.8919C19.5627 16.6796 18.0638 16.4719 16.5548 16.2199C16.3124 16.1835 16.0492 16.0586 15.8548 15.9081C15.5857 15.719 15.6804 15.4072 15.9904 15.334C16.1676 15.2922 16.3551 15.2948 16.5136 15.3322ZM8.21906 11.5735C8.4521 11.6495 8.68091 11.746 8.91395 11.822C10.2829 12.3127 11.6325 12.7986 13.0015 13.2893C13.1551 13.3466 13.2845 13.4186 13.4381 13.4758C13.4043 13.5304 13.3947 13.5702 13.3854 13.6098C12.6829 13.4857 11.9663 13.4209 11.2778 13.2374C10.3073 13.0081 9.33043 12.7148 8.3692 12.4459C8.21072 12.4084 8.06096 12.3316 7.93164 12.2592C7.74765 12.153 7.66611 11.9659 7.75718 11.7574C7.84357 11.5687 8.02107 11.5268 8.21906 11.5735ZM17.9186 7.17197C17.9977 7.19104 18.0696 7.41637 18.0615 7.53987C18.0449 7.78689 17.9845 8.04476 17.9388 8.32669C17.8103 8.69362 17.681 9.0606 17.5723 9.4322C17.3408 10.2349 17.1339 11.023 16.9025 11.8257C16.8125 12.1182 16.7022 12.4067 16.5377 12.6607C16.3685 12.9341 16.1147 13.1245 15.7585 13.0406C15.4021 12.9564 15.2796 12.677 15.2309 12.352C15.1591 11.7703 15.3097 11.2193 15.5596 10.6927C15.9823 9.78882 16.4205 8.90966 16.8978 8.03963C17.0473 7.76119 17.2762 7.50084 17.4955 7.28075C17.5786 7.19589 17.7999 7.14392 17.9186 7.17197Z" fill="white"/>
<defs>
<linearGradient id="paint0_linear_254_1881" x1="7.9602" y1="35.6141" x2="22.1669" y2="29.9482" gradientUnits="userSpaceOnUse">
<stop stop-color="#8A38F5"/>
<stop offset="1" stop-color="#6464CF"/>
</linearGradient>
</defs>
</svg>
