<svg width="40" height="28" viewBox="0 0 40 28" fill="none" xmlns="http://www.w3.org/2000/svg">
<path d="M29.1666 24.1667C33.3333 30.0001 39.9149 25.6917 38.3333 20.0001C35.9583 11.4517 34.6666 6.69341 33.9949 4.18008C33.8033 3.46012 33.3795 2.82353 32.7891 2.36908C32.1988 1.91463 31.4749 1.66775 30.7299 1.66675H9.26992C7.73992 1.66675 6.40658 2.70841 6.03492 4.19175C4.63325 9.77175 3.38825 14.6701 1.90658 20.0001C0.326583 25.6917 6.90658 30.0001 11.0732 24.1667" fill="white" fill-opacity="0.14"/>
<path d="M29.1666 24.1667C33.3333 30.0001 39.9149 25.6917 38.3333 20.0001C35.9583 11.4517 34.6666 6.69341 33.9949 4.18008C33.8033 3.46012 33.3795 2.82353 32.7891 2.36908C32.1988 1.91463 31.4749 1.66775 30.7299 1.66675H9.26992C7.73992 1.66675 6.40658 2.70841 6.03492 4.19175C4.63325 9.77175 3.38825 14.6701 1.90658 20.0001C0.326583 25.6917 6.90658 30.0001 11.0732 24.1667" stroke="white" stroke-width="1.5" stroke-linecap="round" stroke-linejoin="round"/>
<path d="M26.6667 1.66675V5.00008C26.6667 5.88414 26.3155 6.73198 25.6904 7.3571C25.0652 7.98223 24.2174 8.33341 23.3333 8.33341H16.6667C15.7826 8.33341 14.9348 7.98223 14.3096 7.3571C13.6845 6.73198 13.3333 5.88414 13.3333 5.00008V1.66675M13.3333 21.6667C14.2174 21.6667 15.0652 21.3156 15.6904 20.6904C16.3155 20.0653 16.6667 19.2175 16.6667 18.3334C16.6667 17.4494 16.3155 16.6015 15.6904 15.9764C15.0652 15.3513 14.2174 15.0001 13.3333 15.0001C12.4493 15.0001 11.6014 15.3513 10.9763 15.9764C10.3512 16.6015 10 17.4494 10 18.3334C10 19.2175 10.3512 20.0653 10.9763 20.6904C11.6014 21.3156 12.4493 21.6667 13.3333 21.6667ZM26.6667 21.6667C27.5507 21.6667 28.3986 21.3156 29.0237 20.6904C29.6488 20.0653 30 19.2175 30 18.3334C30 17.4494 29.6488 16.6015 29.0237 15.9764C28.3986 15.3513 27.5507 15.0001 26.6667 15.0001C25.7826 15.0001 24.9348 15.3513 24.3096 15.9764C23.6845 16.6015 23.3333 17.4494 23.3333 18.3334C23.3333 19.2175 23.6845 20.0653 24.3096 20.6904C24.9348 21.3156 25.7826 21.6667 26.6667 21.6667Z" fill="white" fill-opacity="0.14"/>
<path d="M26.6667 1.66675V5.00008C26.6667 5.88414 26.3155 6.73198 25.6904 7.3571C25.0652 7.98223 24.2174 8.33341 23.3333 8.33341H16.6667C15.7826 8.33341 14.9348 7.98223 14.3096 7.3571C13.6845 6.73198 13.3333 5.88414 13.3333 5.00008V1.66675M13.3333 21.6667C14.2174 21.6667 15.0652 21.3156 15.6904 20.6904C16.3155 20.0653 16.6667 19.2175 16.6667 18.3334C16.6667 17.4494 16.3155 16.6015 15.6904 15.9764C15.0652 15.3513 14.2174 15.0001 13.3333 15.0001C12.4493 15.0001 11.6014 15.3513 10.9763 15.9764C10.3512 16.6015 10 17.4494 10 18.3334C10 19.2175 10.3512 20.0653 10.9763 20.6904C11.6014 21.3156 12.4493 21.6667 13.3333 21.6667ZM26.6667 21.6667C27.5507 21.6667 28.3986 21.3156 29.0237 20.6904C29.6488 20.0653 30 19.2175 30 18.3334C30 17.4494 29.6488 16.6015 29.0237 15.9764C28.3986 15.3513 27.5507 15.0001 26.6667 15.0001C25.7826 15.0001 24.9348 15.3513 24.3096 15.9764C23.6845 16.6015 23.3333 17.4494 23.3333 18.3334C23.3333 19.2175 23.6845 20.0653 24.3096 20.6904C24.9348 21.3156 25.7826 21.6667 26.6667 21.6667Z" stroke="white" stroke-width="1.5" stroke-linecap="round" stroke-linejoin="round"/>
</svg>
